PathFileType	4	(X/Y/Z)	/Users/itak/Documents/Research/Walk-IL/dataset/trc/00043_00004.trc
DataRate	CameraRate	NumFrames	NumMarkers	Units	OrigDataRate	OrigDataStartFrame	OrigNumFrames
100.000000	100.000000	4	53	mm	100.000000	59	474
Frame#	Time	RPSI			LPSI			L3			STRN			T10			C7			CLAV			RBAK			LBAK			LSHO			LUPA			LAEL			LAOL			LWTS			LWPS			LFRA			LIFD			LHPS			LHTS			RSHO			RUPA			RAEL			RAOL			RWTS			RWPS			RFRA			RIFD			RHTS			RHPS			RBHD			LFHD			RFHD			LBHD			LHIP			RHIP			RASI			LASI			LKNE			LTHI			LANK			LTIP			LTOE			LMT1			LMT5			LHEE			RKNE			RTHI			RANK			RTIP			RTOE			RMT1			RMT5			RHEE			
		X1	Y1	Z1	X2	Y2	Z2	X3	Y3	Z3	X4	Y4	Z4	X5	Y5	Z5	X6	Y6	Z6	X7	Y7	Z7	X8	Y8	Z8	X9	Y9	Z9	X10	Y10	Z10	X11	Y11	Z11	X12	Y12	Z12	X13	Y13	Z13	X14	Y14	Z14	X15	Y15	Z15	X16	Y16	Z16	X17	Y17	Z17	X18	Y18	Z18	X19	Y19	Z19	X20	Y20	Z20	X21	Y21	Z21	X22	Y22	Z22	X23	Y23	Z23	X24	Y24	Z24	X25	Y25	Z25	X26	Y26	Z26	X27	Y27	Z27	X28	Y28	Z28	X29	Y29	Z29	X30	Y30	Z30	X31	Y31	Z31	X32	Y32	Z32	X33	Y33	Z33	X34	Y34	Z34	X35	Y35	Z35	X36	Y36	Z36	X37	Y37	Z37	X38	Y38	Z38	X39	Y39	Z39	X40	Y40	Z40	X41	Y41	Z41	X42	Y42	Z42	X43	Y43	Z43	X44	Y44	Z44	X45	Y45	Z45	X46	Y46	Z46	X47	Y47	Z47	X48	Y48	Z48	X49	Y49	Z49	X50	Y50	Z50	X51	Y51	Z51	X52	Y52	Z52	X53	Y53	Z53	

60	0.59	-1250.58251953125	1075.817138671875	191.6466827392578	-1256.181396484375	1062.8828125	28.19442176818848	-1260.257202148438	1121.221557617188	99.04587554931641	-1050.602661132812	1328.63720703125	100.197021484375	-1293.839233398438	1264.234375	88.54003143310547	-1260.733032226562	1533.922119140625	69.97245025634766	-1097.113647460938	1452.295532226562	89.48448944091797	-1307.367797851562	1396.0419921875	151.6085815429688	-1268.799438476562	1487.947875976562	-27.47418403625488	-1161.85888671875	1499.240966796875	-95.71256256103516	-1177.119140625	1367.889282226562	-169.310791015625	-1158.124633789062	1148.51220703125	-182.0385131835938	-1220.58251953125	1137.0126953125	-97.23583984375	-1066.176025390625	902.0345458984375	-107.5516052246094	-1138.61279296875	883.3187866210938	-155.4813232421875	-1139.066650390625	1033.405517578125	-181.114990234375	-1036.206787109375	720.0241088867188	-76.84605407714844	-1101.85107421875	794.8019409179688	-147.9194793701172	-1039.720336914062	809.4808349609375	-113.7876663208008	-1195.455322265625	1529.465698242188	251.6434020996094	-1209.070678710938	1459.871826171875	324.09375	-1226.148315429688	1188.685546875	349.6787719726562	-1218.27978515625	1160.68701171875	253.3239440917969	-1082.555541992188	935.0682983398438	330.2793884277344	-1149.995239257812	918.6395263671875	391.5091857910156	-1209.961791992188	1113.633178710938	366.8561706542969	-1058.906372070312	750.150390625	320.5723571777344	-1045.102172851562	827.8836669921875	348.78125	-1103.701293945312	821.26611328125	395.7333679199219	-1212.87548828125	1714.678955078125	-5.311522006988525	-1070.279663085938	1755.25341796875	155.1782379150391	-1047.767822265625	1754.98828125	59.35711669921875	-1239.369506835938	1713.974609375	136.8253173828125	-1159.216430664062	959.93017578125	-79.45428466796875	-1134.661865234375	964.9837036132812	291.7510070800781	-1034.523803710938	1001.415649414062	216.0420379638672	-1043.461547851562	1012.430786132812	-18.7800464630127	-1124.259033203125	517.4720458984375	-15.41465663909912	-1143.328002929688	652.82763671875	-55.06776809692383	-1221.91259765625	41.64500427246094	1.357523918151855	-1204.7412109375	286.991943359375	-25.7252197265625	-1003.994262695312	41.90600204467773	72.66126251220703	-1064.0361328125	51.65940475463867	87.46509552001953	-1097.635620117188	41.33972549438477	-14.28356647491455	-1292.335693359375	49.89648818969727	51.88390350341797	-1124.768798828125	528.2603759765625	241.1356658935547	-1109.839721679688	795.73681640625	290.0579223632812	-1239.751831054688	46.94723510742188	215.7977142333984	-1149.540283203125	405.20556640625	239.5210571289062	-1006.855712890625	46.771240234375	174.3660125732422	-1070.831909179688	51.43923187255859	144.3207397460938	-1091.195922851562	44.40755844116211	238.7407531738281	-1294.526000976562	47.8348503112793	169.9512481689453	
61	0.6	-1250.397827148438	1075.768188476562	191.7063903808594	-1256.046997070312	1062.84814453125	28.22342300415039	-1260.129760742188	1121.171997070312	99.08995056152344	-1050.427490234375	1328.626953125	100.2050018310547	-1293.7119140625	1264.24755859375	88.64959716796875	-1260.6181640625	1533.995483398438	70.08154296875	-1096.957641601562	1452.277954101562	89.51510620117188	-1307.230712890625	1396.046508789062	151.7296142578125	-1268.726684570312	1487.992431640625	-27.37482261657715	-1161.814453125	1499.254638671875	-95.62955474853516	-1177.161254882812	1367.911376953125	-169.2395324707031	-1158.055541992188	1148.57373046875	-182.1179962158203	-1220.42041015625	1136.972900390625	-97.269287109375	-1065.956298828125	902.0908813476562	-107.9004440307617	-1138.37939453125	883.3638916015625	-155.7491149902344	-1139.0234375	1033.469604492188	-181.3064880371094	-1035.820190429688	720.0899658203125	-77.40157318115234	-1101.6123046875	794.8770751953125	-148.3273468017578	-1039.518188476562	809.4454345703125	-114.3871383666992	-1195.200317382812	1529.360961914062	251.7846984863281	-1208.804809570312	1459.769165039062	324.1961975097656	-1226.050537109375	1188.60986328125	349.6577453613281	-1218.272583007812	1160.638916015625	253.2673797607422	-1083.155029296875	934.637451171875	330.1808471679688	-1150.625854492188	918.40283203125	391.4256896972656	-1210.002563476562	1113.567016601562	366.8063659667969	-1060.134887695312	749.5632934570312	320.45849609375	-1046.082885742188	827.2930297851562	348.6477661132812	-1104.609375	820.855224609375	395.5848999023438	-1212.525756835938	1714.8056640625	-5.047831535339355	-1069.398315429688	1755.022338867188	155.0589294433594	-1047.195556640625	1754.681030273438	59.14487838745117	-1238.662109375	1714.154418945312	137.1782989501953	-1159.077270507812	959.9404907226562	-79.46848297119141	-1134.59326171875	964.9853515625	291.8326110839844	-1034.464965820312	1001.363037109375	216.0573272705078	-1043.331176757812	1012.427368164062	-18.75480270385742	-1123.984375	517.4632568359375	-15.35864067077637	-1143.076293945312	652.8113403320312	-55.05879974365234	-1221.893676757812	41.64461898803711	1.366300940513611	-1204.532348632812	286.9702453613281	-25.71383285522461	-1004.021362304688	41.95535659790039	72.61135864257812	-1064.025146484375	51.67023468017578	87.45866394042969	-1097.613037109375	41.33285522460938	-14.25281238555908	-1292.327880859375	49.91399383544922	51.87532043457031	-1124.756958007812	528.26513671875	241.1523590087891	-1109.843383789062	795.640869140625	290.2115783691406	-1239.771728515625	46.93422317504883	215.8296051025391	-1149.545776367188	405.1932983398438	239.5815887451172	-1006.851745605469	46.74518585205078	174.3554382324219	-1070.83251953125	51.43321990966797	144.3146514892578	-1091.202026367188	44.40262603759766	238.7481689453125	-1294.544677734375	47.82704925537109	169.9730987548828	
62	0.61	-1250.236938476562	1075.729614257812	191.7378997802734	-1255.906616210938	1062.817260742188	28.2294864654541	-1260.007690429688	1121.128295898438	99.10929870605469	-1050.2294921875	1328.603271484375	100.2214584350586	-1293.569213867188	1264.272583007812	88.74965667724609	-1260.458740234375	1534.0732421875	70.19744110107422	-1096.808837890625	1452.250854492188	89.54738616943359	-1307.081420898438	1396.058227539062	151.8460998535156	-1268.62890625	1488.044677734375	-27.27780151367188	-1161.738159179688	1499.27392578125	-95.54033660888672	-1177.18115234375	1367.940307617188	-169.1698913574219	-1157.9990234375	1148.638427734375	-182.1958923339844	-1220.266357421875	1136.952514648438	-97.2916259765625	-1065.785766601562	902.1395874023438	-108.2457656860352	-1138.185424804688	883.4135131835938	-156.0067596435547	-1139.005126953125	1033.5341796875	-181.4944305419922	-1035.3916015625	720.22119140625	-78.04976654052734	-1101.461669921875	794.9490966796875	-148.7342071533203	-1039.412841796875	809.3865966796875	-115.0000686645508	-1194.94140625	1529.255615234375	251.9239959716797	-1208.521362304688	1459.67236328125	324.3075866699219	-1225.957275390625	1188.53857421875	349.631103515625	-1218.261352539062	1160.594482421875	253.2084350585938	-1083.763549804688	934.2199096679688	330.08154296875	-1151.262939453125	918.166015625	391.3418579101562	-1210.056518554688	1113.502319335938	366.74755859375	-1061.359741210938	748.9967651367188	320.3582458496094	-1047.115966796875	826.6920166015625	348.4986267089844	-1105.508056640625	820.4444580078125	395.4373474121094	-1212.159790039062	1714.92041015625	-4.753861427307129	-1068.48388671875	1754.804565429688	154.9086608886719	-1046.6103515625	1754.379028320312	58.89803695678711	-1237.905639648438	1714.339477539062	137.5590362548828	-1158.927124023438	959.947998046875	-79.49376678466797	-1134.56201171875	964.9663696289062	291.8657836914062	-1034.415283203125	1001.316345214844	216.0809173583984	-1043.174926757812	1012.418029785156	-18.70870971679688	-1123.75732421875	517.4488525390625	-15.31627559661865	-1142.828247070312	652.7919921875	-55.0551643371582	-1221.876831054688	41.64356994628906	1.374347329139709	-1204.355834960938	286.9530944824219	-25.71391868591309	-1004.040710449219	41.9952392578125	72.56533813476562	-1064.0107421875	51.68111419677734	87.45346069335938	-1097.594604492188	41.32776641845703	-14.22497177124023	-1292.320190429688	49.92916870117188	51.86642456054688	-1124.739990234375	528.2662963867188	241.1582641601562	-1109.854736328125	795.5675659179688	290.3539733886719	-1239.788696289062	46.92657470703125	215.8519897460938	-1149.545654296875	405.1844177246094	239.6229248046875	-1006.847534179688	46.71981048583984	174.3460693359375	-1070.833251953125	51.42589569091797	144.3064117431641	-1091.205688476562	44.40069961547852	238.75390625	-1294.558715820312	47.82214736938477	169.9887390136719	
63	0.62	-1250.098022460938	1075.703735351562	191.7409515380859	-1255.756713867188	1062.791748046875	28.21247863769531	-1259.888305664062	1121.093017578125	99.10442352294922	-1050.005859375	1328.565185546875	100.2474746704102	-1293.415283203125	1264.308837890625	88.83865356445312	-1260.249389648438	1534.147216796875	70.32772064208984	-1096.66650390625	1452.217895507812	89.58052062988281	-1306.91943359375	1396.07666015625	151.9557952880859	-1268.506103515625	1488.104125976562	-27.18052864074707	-1161.629028320312	1499.298828125	-95.44546508789062	-1177.176513671875	1367.976440429688	-169.1037750244141	-1157.956298828125	1148.705322265625	-182.2733612060547	-1220.123657226562	1136.953247070312	-97.30585479736328	-1065.669189453125	902.1802368164062	-108.5863952636719	-1138.030395507812	883.4660034179688	-156.2524871826172	-1139.006713867188	1033.599487304688	-181.6788787841797	-1034.88134765625	720.4265747070312	-78.76760864257812	-1101.388549804688	795.0161743164062	-149.1305389404297	-1039.3984375	809.313720703125	-115.6042709350586	-1194.68115234375	1529.151123046875	252.0581512451172	-1208.22314453125	1459.58251953125	324.4266357421875	-1225.873168945312	1188.472412109375	349.5986328125	-1218.246704101562	1160.55419921875	253.1486206054688	-1084.385009765625	933.8146362304688	329.9821166992188	-1151.898193359375	917.9312133789062	391.2621765136719	-1210.126708984375	1113.439086914062	366.6795349121094	-1062.575439453125	748.4566650390625	320.2622375488281	-1048.167236328125	826.091552734375	348.344482421875	-1106.402099609375	820.0350952148438	395.295166015625	-1211.788818359375	1715.020385742188	-4.436220169067383	-1067.533813476562	1754.600952148438	154.7244873046875	-1046.007690429688	1754.084106445312	58.62049865722656	-1237.099975585938	1714.535888671875	137.9713745117188	-1158.769165039062	959.9527587890625	-79.53256988525391	-1134.56103515625	964.9302368164062	291.8549194335938	-1034.369995117188	1001.275512695312	216.1109466552734	-1042.990112304688	1012.40380859375	-18.64455413818359	-1123.581787109375	517.4293823242188	-15.28701782226562	-1142.592041015625	652.7703857421875	-55.05455017089844	-1221.86376953125	41.64234924316406	1.381988286972046	-1204.216796875	286.9400634765625	-25.72245025634766	-1004.052856445312	42.02492523193359	72.52426147460938	-1063.995971679688	51.69230270385742	87.44972229003906	-1097.586669921875	41.32977676391602	-14.20338916778564	-1292.313598632812	49.94156646728516	51.85842895507812	-1124.721435546875	528.263671875	241.1527252197266	-1109.856811523438	795.5227661132812	290.47412109375	-1239.80078125	46.92304992675781	215.8630676269531	-1149.54345703125	405.1790771484375	239.6447143554688	-1006.841918945312	46.69393157958984	174.3368835449219	-1070.834594726562	51.41708374023438	144.2964019775391	-1091.207885742188	44.40118026733398	238.7577667236328	-1294.568481445312	47.82024002075195	169.9957427978516	
